<svg width="142" height="142" viewBox="0 0 142 142" fill="none" xmlns="http://www.w3.org/2000/svg">
<g id="flat-color-icons:high-priority">
<path id="Vector" d="M62.7167 132.533L9.46669 79.2833C4.73335 74.55 4.73335 67.1542 9.46669 62.4208L62.7167 9.17083C67.45 4.4375 74.8459 4.4375 79.5792 9.17083L132.829 62.4208C137.563 67.1542 137.563 74.55 132.829 79.2833L79.5792 132.533C74.8459 137.267 67.1542 137.267 62.7167 132.533Z" fill="#F44336"/>
<path id="Vector_2" d="M62.7167 132.533L9.46669 79.2833C4.73335 74.55 4.73335 67.1542 9.46669 62.4208L62.7167 9.17083C67.45 4.4375 74.8459 4.4375 79.5792 9.17083L132.829 62.4208C137.563 67.1542 137.563 74.55 132.829 79.2833L79.5792 132.533C74.8459 137.267 67.1542 137.267 62.7167 132.533Z" fill="#F44336"/>
<path id="Vector_3" d="M63.9 96.7375C63.9 95.85 64.1959 94.9625 64.4917 94.075C64.7875 93.1875 65.3792 92.5958 65.9709 92.0042C66.5625 91.4125 67.45 90.8208 68.3375 90.525C69.225 90.2292 70.1125 89.9333 71.2959 89.9333C72.4792 89.9333 73.3667 90.2292 74.2542 90.525C75.1417 90.8208 76.0292 91.4125 76.6209 92.0042C77.2125 92.5958 77.8042 93.1875 78.1 94.075C78.3959 94.9625 78.6917 95.85 78.6917 96.7375C78.6917 97.625 78.3959 98.5125 78.1 99.4C77.8042 100.287 77.2125 100.879 76.6209 101.471C76.0292 102.062 75.1417 102.654 74.2542 102.95C73.3667 103.246 72.4792 103.542 71.2959 103.542C70.1125 103.542 69.225 103.246 68.3375 102.95C67.45 102.654 66.8584 102.062 65.9709 101.471C65.3792 100.879 64.7875 100.287 64.4917 99.4C64.1959 98.5125 63.9 97.9208 63.9 96.7375ZM76.325 83.1292H65.675L64.1959 38.4583H77.8042L76.325 83.1292Z" fill="white"/>
</g>
</svg>
